<svg width="301" height="183" viewBox="0 0 301 183" fill="none" xmlns="http://www.w3.org/2000/svg">
<path fill-rule="evenodd" clip-rule="evenodd" d="M130.31 0.900049L147.92 18.51H282.32L300.68 36.87V171.84L290.15 182.37H17.3901L0.0800781 165.06V16.2901L15.9801 0.390063C15.9501 0.360063 17.9601 0.330078 21.4701 0.330078C44.2701 0.330078 130.31 0.900049 130.31 0.900049ZM16.2501 0.960034L0.680078 16.5301V164.82L17.6301 181.77H289.91L300.08 171.6V37.11L282.05 19.11H147.68L147.5 18.9301L130.07 1.50005C124.94 1.47005 43.4001 0.930078 21.4701 0.930078C17.9301 0.930078 16.6701 0.960034 16.2501 0.960034Z" fill="#0BA0F9"/>
<g opacity="0.1">
<path d="M15.9801 0.390146L0.0800781 16.2901V165.06L17.3901 182.37H290.15L300.68 171.84V36.8701L282.32 18.5101H147.92L130.31 0.900132C130.31 0.900132 15.7401 0.150146 15.9801 0.390146Z" fill="#0BA0F9"/>
</g>
<path opacity="0.1" d="M299.9 82.17L292.7 89.37V131.01L286.28 137.43V160.32L273.29 173.31H164.63L155.18 182.76H290.15L300.86 172.05C300.86 172.05 299.12 81.39 299.9 82.17Z" fill="#0BA0F9"/>
<path opacity="0.1" d="M147.919 18.5096H34.5194L19.6694 33.3596V118.17L0.109375 137.73V16.2896L15.9794 0.389648H130.309C130.309 0.389648 147.589 18.1796 147.919 18.5096Z" fill="#0BA0F9"/>
<path d="M143.9 3.48044L152.81 12.3904H243.32L233.12 2.19043H142.52L143.9 3.48044Z" fill="#0BA0F9"/>
<path d="M239.03 3.48044L247.97 12.3904H253.97L243.77 2.19043H237.68L239.03 3.48044Z" fill="#0BA0F9"/>
<path d="M248.629 3.48044L257.569 12.3904H263.569L253.369 2.19043H247.279L248.629 3.48044Z" fill="#0BA0F9"/>
<path d="M258.231 3.48044L267.171 12.3904H273.171L262.971 2.19043H256.881L258.231 3.48044Z" fill="#0BA0F9"/>
<path d="M0.0795166 126.9L6.76953 133.59V156.21L25.9095 175.38H163.61L167.419 179.16H214.01L217.31 182.46H17.3895L0.0195312 165.12C0.0195312 165.12 0.829517 126.9 0.0795166 126.9Z" fill="#0BA0F9"/>
</svg>
